<svg xmlns="http://www.w3.org/2000/svg" width="65" height="14.861" viewBox="0 0 65 14.861">
  <g id="Group_1201" data-name="Group 1201" transform="translate(-122.1 -67.6)">
    <path id="Path_2675" data-name="Path 2675" d="M125.932,203.73a3.458,3.458,0,0,0-2.7,1.077,3.81,3.81,0,0,0-.076,5.339,3.577,3.577,0,0,0,2.55,1.153,3.525,3.525,0,0,0,2.892-1.294v1.13h.94v-3.623a3.441,3.441,0,0,0-1.016-2.614A3.618,3.618,0,0,0,125.932,203.73Zm1.819,5.8a2.512,2.512,0,0,1-2.028.826,2.656,2.656,0,0,1-1.891-.9,2.807,2.807,0,0,1-.75-2.006,2.7,2.7,0,0,1,.826-1.964,2.674,2.674,0,0,1,1.968-.811,2.52,2.52,0,0,1,1.891.811,2.808,2.808,0,0,1,.811,1.952A2.857,2.857,0,0,1,127.751,209.526Z" transform="translate(0 -130.947)" fill="#fff"/>
    <path id="Path_2676" data-name="Path 2676" d="M354.381,146.438a3.576,3.576,0,0,0-2.664-1.282,3.461,3.461,0,0,0-2.687,1.092,3.83,3.83,0,0,0-.091,5.339,3.72,3.72,0,0,0,6.39-2.637h0V142.8h-.951Zm-.841,4.513a2.477,2.477,0,0,1-2.028.826,2.578,2.578,0,0,1-1.9-.887,2.818,2.818,0,0,1-.761-2.006,2.736,2.736,0,0,1,.826-1.968,2.649,2.649,0,0,1,1.968-.811,2.5,2.5,0,0,1,1.891.811,2.808,2.808,0,0,1,.811,1.952A2.758,2.758,0,0,1,353.54,150.952Z" transform="translate(-217.207 -72.338)" fill="#fff"/>
    <path id="Path_2677" data-name="Path 2677" d="M573.432,203.73a3.458,3.458,0,0,0-2.7,1.077,3.81,3.81,0,0,0-.076,5.339,3.577,3.577,0,0,0,2.55,1.153,3.525,3.525,0,0,0,2.892-1.294v1.13h.94v-3.623a3.441,3.441,0,0,0-1.016-2.614A3.617,3.617,0,0,0,573.432,203.73Zm1.819,5.8a2.512,2.512,0,0,1-2.028.826,2.656,2.656,0,0,1-1.891-.9,2.808,2.808,0,0,1-.75-2.006,2.7,2.7,0,0,1,.826-1.964,2.674,2.674,0,0,1,1.967-.811,2.52,2.52,0,0,1,1.891.811,2.808,2.808,0,0,1,.811,1.952A2.856,2.856,0,0,1,575.251,209.526Z" transform="translate(-430.47 -130.947)" fill="#fff"/>
    <path id="Path_2678" data-name="Path 2678" d="M853.981,146.438a3.576,3.576,0,0,0-2.664-1.282,3.461,3.461,0,0,0-2.687,1.092,3.83,3.83,0,0,0-.091,5.339,3.72,3.72,0,0,0,6.39-2.637h0V142.8h-.951Zm-.841,4.513a2.477,2.477,0,0,1-2.028.826,2.584,2.584,0,0,1-1.9-.887,2.819,2.819,0,0,1-.761-2.006,2.736,2.736,0,0,1,.826-1.968,2.649,2.649,0,0,1,1.968-.811,2.5,2.5,0,0,1,1.891.811,2.809,2.809,0,0,1,.811,1.952A2.759,2.759,0,0,1,853.14,150.952Z" transform="translate(-697.794 -72.338)" fill="#fff"/>
    <rect id="Rectangle_2961" data-name="Rectangle 2961" width="0.951" height="7.231" transform="translate(159.57 72.958)" fill="#fff"/>
    <rect id="Rectangle_2962" data-name="Rectangle 2962" width="0.951" height="1.686" transform="translate(159.57 70.412)" fill="#fff"/>
    <rect id="Rectangle_2963" data-name="Rectangle 2963" width="1.001" height="1.713" transform="translate(163.364 70.412)" fill="#fff"/>
    <path id="Path_2679" data-name="Path 2679" d="M1185.814,215.346a2.055,2.055,0,0,1-.141.913.809.809,0,0,1-.674.392v.963l.27-.049a1.931,1.931,0,0,0,1.168-.636,2.12,2.12,0,0,0,.354-1.408V208.1h-.978Z" transform="translate(-1022.45 -135.153)" fill="#fff"/>
    <rect id="Rectangle_2964" data-name="Rectangle 2964" width="0.951" height="7.231" transform="translate(166.367 72.958)" fill="#fff"/>
    <rect id="Rectangle_2965" data-name="Rectangle 2965" width="0.951" height="1.686" transform="translate(166.367 70.412)" fill="#fff"/>
    <path id="Path_2680" data-name="Path 2680" d="M1364.278,149.308v-4.083h1.663v-.9h-1.663V141.8h-.978v7.672c0,1.5.875,2.245,2.637,2.245h0v-.8A1.447,1.447,0,0,1,1364.278,149.308Z" transform="translate(-1193.965 -71.376)" fill="#fff"/>
    <path id="Path_2681" data-name="Path 2681" d="M1483.332,203.73a3.459,3.459,0,0,0-2.7,1.077,3.811,3.811,0,0,0-.076,5.339,3.577,3.577,0,0,0,2.55,1.153,3.525,3.525,0,0,0,2.892-1.294v1.13h.94v-3.623a3.442,3.442,0,0,0-1.016-2.614A3.617,3.617,0,0,0,1483.332,203.73Zm1.819,5.8a2.512,2.512,0,0,1-2.029.826,2.656,2.656,0,0,1-1.891-.9,2.808,2.808,0,0,1-.75-2.006,2.7,2.7,0,0,1,.826-1.964,2.674,2.674,0,0,1,1.968-.811,2.52,2.52,0,0,1,1.891.811,2.809,2.809,0,0,1,.811,1.952A2.857,2.857,0,0,1,1485.151,209.526Z" transform="translate(-1305.743 -130.947)" fill="#fff"/>
    <rect id="Rectangle_2966" data-name="Rectangle 2966" width="0.963" height="9.777" transform="translate(183.161 70.412)" fill="#fff"/>
    <path id="Path_2682" data-name="Path 2682" d="M1785.156,68.041a.83.83,0,0,0-.331-.327.927.927,0,0,0-.438-.114.974.974,0,0,0-.438.114.831.831,0,0,0-.331.327.892.892,0,0,0,0,.887.808.808,0,0,0,.327.331.885.885,0,0,0,.883,0,.856.856,0,0,0,.327-.331.892.892,0,0,0,0-.887Zm-.126.818a.678.678,0,0,1-.274.274.738.738,0,0,1-.738,0,.678.678,0,0,1-.274-.274.755.755,0,0,1-.1-.369.73.73,0,0,1,.1-.373.711.711,0,0,1,.278-.274.748.748,0,0,1,.365-.1.792.792,0,0,1,.365.1.686.686,0,0,1,.278.274.78.78,0,0,1,.1.373A.755.755,0,0,1,1785.03,68.86Z" transform="translate(-1598.173)" fill="#fff"/>
    <path id="Path_2683" data-name="Path 2683" d="M1797.144,79.378a.264.264,0,0,0-.08-.049.291.291,0,0,0,.2-.088.263.263,0,0,0,.076-.183.249.249,0,0,0-.046-.141.267.267,0,0,0-.122-.091.765.765,0,0,0-.244-.027h-.327v.955h.152v-.407h.091a.19.19,0,0,1,.125.034.8.8,0,0,1,.16.221l.084.152h.19l-.118-.186A1.292,1.292,0,0,0,1797.144,79.378Zm-.206-.16h-.187v-.289h.175a.483.483,0,0,1,.156.015.141.141,0,0,1,.065.049.138.138,0,0,1,.023.076.125.125,0,0,1-.05.107A.291.291,0,0,1,1796.939,79.219Z" transform="translate(-1610.775 -10.774)" fill="#fff"/>
  </g>
</svg>
