<svg xmlns="http://www.w3.org/2000/svg" xmlns:xlink="http://www.w3.org/1999/xlink" width="1110" height="131.333" viewBox="0 0 1110 131.333">
  <defs>
    <clipPath id="clip-path">
      <rect id="Rectangle" width="1110" height="131.333" rx="16" fill="#a4abb1"/>
    </clipPath>
  </defs>
  <g id="Banner" clip-path="url(#clip-path)">
    <rect id="Rectangle_" data-name="Rectangle " width="1110" height="131.333" rx="16" fill="#ffd600"/>
    <rect id="Rectangle-2" data-name="Rectangle" width="103.78" height="103.78" rx="51.89" transform="matrix(0.966, -0.259, 0.259, 0.966, -19, 72.36)" fill="#ffc300" opacity="0.413"/>
    <path id="Brand_Pattern_Wave" data-name="Brand / Pattern / Wave" d="M610.219,473.275a398.542,398.542,0,0,1-110.669-50.756c-20.38-13.481-45.811-22.785-77.746-28.446-25.548-4.529-54.432-6.638-90.9-6.638-23.274,0-46.076.85-68.127,1.672-19.512.727-37.941,1.414-54.579,1.414-7.7,0-14.446-.145-20.614-.445-59.434-2.884-108.724-15.352-142.538-36.06C14.849,335.523-1.128,311.538.062,286.479c1.192-25.106,19.518-48.582,51.605-66.1,36.051-19.686,87.179-30.692,147.857-31.828,63.53-1.189,119.861-13,162.9-34.165,40-19.664,66.345-46.716,74.2-76.174,6.4-24.023,25.5-44.167,55.235-58.256C519.013,7.088,553.865,0,590,0c51.224,0,98.5,13.91,129.7,38.162,36.991,28.754,24.7,60.745,11.678,94.613-16.152,42.03-32.854,85.491,46.013,125.407,65.811,33.306,110.318,67.574,128.713,99.1,20.13,34.5,9.969,65.45-30.2,92-18.85,12.455-41.814,22.244-68.257,29.1A345.736,345.736,0,0,1,721.031,488.9,403.84,403.84,0,0,1,610.219,473.275ZM500.187,422.216A397.646,397.646,0,0,0,610.6,472.858a402.471,402.471,0,0,0,110.434,15.579c60.059,0,116.27-14.384,154.222-39.463,39.971-26.413,50.08-57.215,30.045-91.549-18.348-31.446-62.775-65.644-128.479-98.9-79.223-40.1-62.468-83.691-46.266-125.85,12.977-33.765,25.233-65.659-11.541-94.243C687.972,14.306,640.95.467,590.006.467c-35.938,0-70.6,7.049-97.608,19.843-29.578,14.014-48.58,34.059-54.95,57.967-17.024,63.891-112.627,108.393-237.894,110.738-60.467,1.132-111.4,12.092-147.3,31.694C20.321,238.146,2.084,261.508.9,286.492-.285,311.43,15.613,335.3,45.664,353.7c33.671,20.619,82.772,33.036,142,35.91,6.138.3,12.856.443,20.54.443,16.614,0,35.024-.687,54.515-1.414h.008l.049,0h.005c22.053-.822,44.855-1.671,68.129-1.671C384.908,386.966,452.95,390.973,500.187,422.216ZM596.45,451.4a362.916,362.916,0,0,1-100.559-45.9c-18.549-12.208-41.691-20.636-70.749-25.763-23.246-4.1-49.517-6.01-82.678-6.01-21.161,0-41.893.77-61.942,1.513h-.029c-17.727.658-34.473,1.28-49.582,1.28-6.989,0-13.113-.131-18.725-.4-53.986-2.606-98.756-13.875-129.47-32.589-27.424-16.71-41.938-38.383-40.869-61.027,1.072-22.7,17.711-43.917,46.851-59.758,32.749-17.8,79.2-27.754,134.333-28.781,57.787-1.076,109.029-11.772,148.184-30.931,36.388-17.807,60.361-42.3,67.5-68.974,5.812-21.713,23.157-39.92,50.159-52.652C513.537,29.777,545.189,23.372,578,23.371c46.517,0,89.447,12.57,117.782,34.492,33.583,25.981,22.416,54.9,10.593,85.526v0c-14.694,38.052-29.888,77.4,41.876,113.549,59.808,30.124,100.255,61.115,116.969,89.623,18.281,31.181,9.054,59.154-27.426,83.145-17.124,11.262-37.984,20.112-62,26.3a315.49,315.49,0,0,1-78.672,9.521A368.506,368.506,0,0,1,596.45,451.4Zm-99.923-46.2c58.649,38.607,129.89,59.869,200.6,59.869,54.53,0,105.57-13,140.033-35.66,36.28-23.86,45.455-51.683,27.267-82.7-16.665-28.429-57.03-59.351-116.732-89.421-72.122-36.328-56.878-75.809-42.136-113.99,11.786-30.52,22.917-59.347-10.448-85.161-28.175-21.8-70.854-34.3-117.095-34.3-32.621,0-64.085,6.367-88.6,17.924-26.844,12.658-44.089,30.766-49.873,52.364C424.052,152,337.054,192.307,223.06,194.43c-54.92,1.022-101.179,10.929-133.777,28.649-28.984,15.755-45.534,36.863-46.6,59.437-1.064,22.521,13.373,44.077,40.65,60.7,30.57,18.626,75.153,29.844,128.925,32.44,5.592.27,11.693.4,18.654.4,15.007,0,31.649-.616,49.268-1.268h.005l.076,0,.2-.008h.023c20.046-.744,40.775-1.515,61.979-1.515C391.6,373.26,453.523,376.89,496.526,405.2Zm86.155,24.33a327.382,327.382,0,0,1-90.454-41.045C475.516,377.546,454.664,370,428.479,365.4c-20.933-3.672-44.592-5.382-74.457-5.382-19.04,0-37.68.687-55.706,1.351l-.068,0-.053,0c-15.937.588-30.991,1.143-44.571,1.143-6.3,0-11.806-.118-16.841-.36-48.536-2.329-88.786-12.4-116.4-29.12-24.65-14.926-37.7-34.287-36.753-54.517.953-20.285,15.9-39.254,42.1-53.414,29.444-15.917,71.219-24.817,120.807-25.734,52.048-.964,98.2-10.542,133.467-27.7,32.783-15.947,54.379-37.885,60.811-61.775,5.226-19.4,20.816-35.671,45.083-47.048C508.064,52.464,536.512,46.742,566,46.741c41.813,0,80.4,11.232,105.871,30.822,30.178,23.211,20.135,49.068,9.5,76.444-13.236,34.076-26.923,69.312,37.744,101.695,53.8,26.942,90.186,54.656,105.219,80.146,16.431,27.862,8.139,52.859-24.648,74.3-31.129,20.35-77.229,32.022-126.479,32.022A333.223,333.223,0,0,1,582.682,429.529ZM354.022,359.555c44.278,0,100.074,3.254,138.842,28.623C545.6,422.69,609.649,441.7,673.215,441.7c49.006,0,94.873-11.612,125.842-31.859,32.585-21.3,40.824-46.146,24.491-73.844-14.988-25.412-51.291-53.057-104.985-79.944-65.032-32.565-51.291-67.935-38-102.141,10.593-27.27,20.6-53.027-9.361-76.07-25.31-19.466-63.648-30.631-105.185-30.631-29.3,0-57.563,5.684-79.581,16-24.11,11.3-39.6,27.473-44.791,46.759-13.964,51.853-92.36,87.969-195.079,89.869-49.379.915-90.962,9.769-120.255,25.6-26.034,14.073-40.893,32.927-41.84,53.089C83.525,298.643,96.5,317.887,121,332.723c27.469,16.634,67.532,26.653,115.858,28.971,5,.241,10.48.358,16.769.358,13.562,0,28.6-.554,44.522-1.141l.1,0h.041c18.021-.665,36.655-1.352,55.678-1.352Zm134.546,11.91c-14.881-9.666-33.444-16.337-56.752-20.395-18.624-3.244-39.671-4.754-66.236-4.754-16.91,0-33.486.607-49.517,1.192h-.006l-.052,0c-14.173.519-27.561,1.01-39.666,1.01-5.58,0-10.471-.1-14.954-.317-43.088-2.053-78.818-10.923-103.332-25.652-21.874-13.142-33.465-30.191-32.635-48.007.833-17.872,14.1-34.588,37.342-47.068C188.9,213.443,226,205.6,270.044,204.789c46.305-.851,87.368-9.311,118.749-24.464,29.174-14.088,48.395-33.47,54.121-54.575,4.637-17.092,18.471-31.423,40.005-41.443,19.67-9.153,44.917-14.195,71.091-14.2,37.11,0,71.357,9.9,93.962,27.155,26.771,20.439,17.853,43.23,8.411,67.359-11.777,30.1-23.955,61.223,33.612,89.839,47.8,23.759,80.122,48.2,93.474,70.669,14.581,24.544,7.222,46.562-21.875,65.444C733.963,408.51,693.036,418.8,649.307,418.8,592.638,418.8,535.554,401.986,488.569,371.464Zm.633-.305c46.825,30.417,103.684,47.169,160.105,47.169,43.485,0,84.182-10.227,111.655-28.057,28.889-18.749,36.194-40.615,21.712-64.993-13.3-22.393-45.542-46.76-93.234-70.467-57.937-28.8-45.7-60.056-33.877-90.286,9.4-24.024,18.281-46.715-8.266-66.983-22.446-17.136-56.445-26.963-93.281-26.963-25.986,0-51.045,5-70.565,14.087-21.374,9.946-35.107,24.178-39.712,41.154-12.434,45.833-82.226,77.756-173.668,79.437-43.837.806-80.745,8.606-106.733,22.558-23.088,12.394-36.257,28.994-37.085,46.743-.825,17.69,10.684,34.622,32.408,47.676,24.371,14.642,59.916,23.462,102.792,25.5,4.436.212,9.3.315,14.884.315,12.085,0,25.443-.49,39.585-1.007h.026c16.075-.589,32.7-1.2,49.631-1.2C404.994,345.848,454.665,348.725,489.2,371.159Zm-4.743-16.709c-29.552-19.358-72.105-21.841-105.876-21.841-14.584,0-28.835.527-42.617,1.037h0c-12.182.45-23.688.876-34.071.876-4.791,0-8.988-.09-12.83-.275-36.977-1.777-67.635-9.453-88.663-22.2-18.76-11.371-28.692-26.123-27.968-41.537.727-15.453,12.106-29.9,32.04-40.692,22.423-12.133,54.243-18.916,92.021-19.616,39.849-.738,75.19-8.081,102.2-21.235,25.112-12.229,41.655-29.053,46.582-47.372,3.977-14.783,15.839-27.177,34.3-35.842,16.86-7.912,38.5-12.27,60.935-12.271,31.814,0,61.176,8.556,80.557,23.479,22.949,17.671,15.3,37.4,7.192,58.281-10.135,26.12-20.614,53.129,28.954,77.977,41.048,20.577,68.8,41.737,80.266,61.193,12.507,21.228,6.2,40.272-18.755,56.6-23.7,15.512-58.809,24.41-96.315,24.41A254.486,254.486,0,0,1,484.458,354.45Zm.635-.3a253.326,253.326,0,0,0,137.317,40.81c37.26,0,72.134-8.837,95.681-24.245,24.745-16.2,31-35.091,18.6-56.154-11.416-19.377-39.091-40.468-80.03-60.992-49.929-25.028-39.4-52.169-29.218-78.417l0,0c8.064-20.781,15.681-40.409-7.049-57.909-19.222-14.8-48.334-23.287-79.872-23.287-22.244,0-43.7,4.319-60.408,12.161-18.3,8.59-30.065,20.885-34.012,35.554-10.71,39.814-70.824,67.545-149.585,69.006-37.568.7-69.2,7.433-91.463,19.484-19.777,10.7-31.066,25.038-31.787,40.368-.717,15.291,9.137,29.926,27.748,41.208,20.881,12.659,51.352,20.284,88.12,22.051,3.839.184,8.012.273,12.757.273,10.274,0,21.685-.42,33.764-.865l.067,0,.184-.006h.024c13.8-.509,28.074-1.037,42.652-1.037C412.532,332.141,455.32,334.643,485.094,354.146Zm-4.744-16.708C455.561,321.01,419.891,318.9,391.586,318.9c-12.207,0-24.132.445-35.665.876l-.086,0c-10.156.379-19.747.736-28.391.736-4.025,0-7.527-.076-10.706-.23-30.868-1.5-56.454-7.984-73.993-18.748-15.646-9.6-23.922-22.055-23.3-35.068.62-13.034,10.117-25.221,26.741-34.316,18.7-10.231,45.242-15.952,76.754-16.541,33.4-.627,63.015-6.854,85.653-18.008,21.047-10.37,34.914-24.635,39.045-40.169,3.316-12.475,13.207-22.932,28.6-30.242,14.053-6.671,32.088-10.345,50.783-10.346,26.518,0,50.991,7.218,67.147,19.8,19.13,14.9,12.74,31.565,5.974,49.207-8.492,22.138-17.272,45.031,24.3,66.112,34.3,17.393,57.486,35.277,67.059,51.717,10.432,17.914,5.17,33.984-15.64,47.764-19.771,13.091-49.055,20.6-80.34,20.6A210.7,210.7,0,0,1,480.35,337.439Zm.64-.3a209.521,209.521,0,0,0,114.523,34.45c31.04,0,60.09-7.448,79.7-20.434,20.61-13.648,25.818-29.568,15.481-47.318-9.526-16.36-32.633-34.175-66.826-51.516-41.921-21.26-33.091-44.286-24.553-66.554v0c6.727-17.536,13.081-34.1-5.832-48.836-16-12.461-40.224-19.608-66.462-19.608-33.786,0-71.181,12.428-78.563,40.189-8.987,33.8-59.421,57.335-125.5,58.575-31.3.588-57.649,6.261-76.2,16.41-16.467,9.009-25.874,21.082-26.489,33.994-.613,12.891,7.586,25.229,23.087,34.742,17.394,10.675,42.791,17.105,73.445,18.595,3.154.154,6.632.229,10.634.229,8.626,0,18.2-.357,28.335-.735l.085,0c11.522-.431,23.436-.878,35.723-.878C420.071,318.435,455.977,320.561,480.99,337.137Zm-4.3-16.718c-20.553-13.493-50.1-15.223-73.543-15.223-10.094,0-19.948.365-29.479.717h-.009c-8.408.311-16.349.6-23.5.6-3.3,0-6.181-.061-8.82-.187-25.418-1.224-46.485-6.508-60.924-15.279-12.87-7.819-19.684-17.96-19.185-28.557.5-10.624,8.309-20.557,21.984-27.97,15.4-8.348,37.261-13.015,63.231-13.5,27.654-.514,52.183-5.622,70.934-14.773,17.443-8.511,28.933-20.219,32.354-32.97,2.731-10.165,10.865-18.684,23.523-24.637,11.557-5.433,26.391-8.427,41.769-8.427,21.812,0,41.945,5.881,55.237,16.135,15.721,12.13,10.456,25.727,4.882,40.12-7.033,18.163-14.3,36.943,20.163,54.257,28.3,14.213,47.424,28.82,55.313,42.241,8.582,14.6,4.254,27.687-12.86,38.911-16.277,10.676-40.388,16.8-66.15,16.8A174.863,174.863,0,0,1,476.687,320.419Zm.636-.3a173.7,173.7,0,0,0,94.284,28.1c25.516,0,49.395-6.062,65.513-16.634,16.914-11.091,21.188-24.031,12.705-38.461-7.85-13.346-26.9-27.883-55.077-42.039-34.831-17.5-27.176-37.264-20.423-54.7,5.535-14.288,10.762-27.785-4.743-39.748-13.133-10.131-33.018-15.943-54.555-15.943-27.724,0-58.409,10.1-64.468,32.666-7.457,27.777-49.288,47.122-104.089,48.139-25.761.479-47.435,5.1-62.678,13.367-13.518,7.328-21.236,17.147-21.73,27.645-.495,10.472,6.24,20.5,18.963,28.229,14.3,8.684,35.176,13.916,60.381,15.129,2.621.126,5.483.187,8.748.187,7.164,0,15.075-.294,23.451-.6l.126-.005h.046c9.5-.351,19.322-.713,29.365-.713C426.767,304.728,456.547,306.477,477.323,320.116Zm-4.3-16.719c-16.321-10.554-39.741-11.907-58.32-11.907-7.967,0-15.761.283-23.3.559-6.636.241-12.9.47-18.536.47-2.583,0-4.852-.048-6.934-.146-19.971-.947-36.521-5.031-47.859-11.812-10.093-6.035-15.442-13.865-15.062-22.045.382-8.21,6.5-15.888,17.223-21.622,12.094-6.465,29.283-10.079,49.712-10.454,21.909-.4,41.347-4.389,56.211-11.536,13.838-6.652,22.955-15.8,25.67-25.771,4.686-17.2,27.962-25.137,49.529-25.527v.468c-21.208.39-44.089,8.206-48.7,25.128-5.93,21.756-39.157,36.908-82.681,37.706-20.219.37-37.219,3.939-49.16,10.323-10.567,5.649-16.591,13.212-16.966,21.3-.374,8.057,4.893,15.768,14.837,21.712,11.2,6.7,27.558,10.73,47.319,11.668,2.065.1,4.309.143,6.863.143,5.6,0,11.834-.227,18.439-.467l.131,0c7.522-.275,15.3-.558,23.263-.558,17.3,0,42.224,1.252,58.952,12.071A137.9,137.9,0,0,0,547.7,324.846c20,0,38.711-4.679,51.334-12.836,13.209-8.535,16.547-18.494,9.919-29.6-6.161-10.328-21.143-21.587-43.321-32.562-27.745-13.73-21.665-29.2-16.3-42.856,4.34-11.042,8.438-21.47-3.646-30.653-9.927-7.545-24.789-11.979-40.982-12.264v-.468c16.465.287,31.569,4.79,41.655,12.455,12.31,9.355,8.171,19.884,3.79,31.03-5.576,14.188-11.343,28.858,16.036,42.406,22.289,11.03,37.352,22.36,43.56,32.764,6.729,11.274,3.338,21.387-10.079,30.055-12.784,8.26-31.725,13-51.967,13A139.058,139.058,0,0,1,473.022,303.4Z" transform="translate(467.147 -135.401)" fill="#ffc300" opacity="0.702"/>
    <circle id="Oval" cx="177.5" cy="177.5" r="177.5" transform="translate(739 14.5)" fill="#fc0"/>
  </g>
</svg>
