<svg xmlns="http://www.w3.org/2000/svg" width="33" height="33" viewBox="0 0 33 33">
  <g id="Group_1473" data-name="Group 1473" transform="translate(-421 -1450)">
    <path id="Path_2887" data-name="Path 2887" d="M16.5,0C29.306,0,33,3.694,33,16.5S29.306,33,16.5,33,0,29.306,0,16.5,3.694,0,16.5,0Z" transform="translate(421 1450)" fill="rgba(21,89,166,0.05)"/>
    <g id="vuesax_bulk_flash" data-name="vuesax/bulk/flash" transform="translate(318 1203)">
      <g id="flash">
        <path id="Vector" d="M0,0H24V24H0Z" transform="translate(108 252)" fill="none" opacity="0"/>
        <path id="Vector-2" data-name="Vector" d="M1.156,10.914h3.09v7.2a1.154,1.154,0,0,0,2.02.76l7.57-8.6a1.155,1.155,0,0,0-.87-1.92H9.876v-7.2a1.154,1.154,0,0,0-2.02-.76l-7.57,8.6A1.159,1.159,0,0,0,1.156,10.914Z" transform="translate(116.164 254.366)" fill="#1559a6"/>
        <g id="Group">
          <path id="Vector-3" data-name="Vector" d="M7.75,1.5h-7A.755.755,0,0,1,0,.75.755.755,0,0,1,.75,0h7A.755.755,0,0,1,8.5.75.755.755,0,0,1,7.75,1.5Z" transform="translate(108.75 255.25)" fill="#1559a6" opacity="0.4"/>
        </g>
        <g id="Group-2" data-name="Group">
          <path id="Vector-4" data-name="Vector" d="M6.75,1.5h-6A.755.755,0,0,1,0,.75.755.755,0,0,1,.75,0h6A.755.755,0,0,1,7.5.75.755.755,0,0,1,6.75,1.5Z" transform="translate(108.75 271.25)" fill="#1559a6" opacity="0.4"/>
        </g>
        <g id="Group-3" data-name="Group">
          <path id="Vector-5" data-name="Vector" d="M3.75,1.5h-3A.755.755,0,0,1,0,.75.755.755,0,0,1,.75,0h3A.755.755,0,0,1,4.5.75.755.755,0,0,1,3.75,1.5Z" transform="translate(108.75 263.25)" fill="#1559a6" opacity="0.4"/>
        </g>
      </g>
    </g>
  </g>
</svg>
