<svg id="Group_1195" data-name="Group 1195" xmlns="http://www.w3.org/2000/svg" width="29.733" height="29.733" viewBox="0 0 29.733 29.733">
  <circle id="Oval" cx="14.867" cy="14.867" r="14.867" transform="translate(0 0)" fill="#1559a6"/>
  <g id="Group_1178" data-name="Group 1178" transform="translate(6.576 6.106)">
    <path id="Path_2664" data-name="Path 2664" d="M-173.936,118.544h0a4.349,4.349,0,0,0-4.349,4.349,4.349,4.349,0,0,0,4.349,4.349,4.349,4.349,0,0,0,4.349-4.349A4.349,4.349,0,0,0-173.936,118.544Zm0,7.173a2.822,2.822,0,0,1-2.823-2.823,2.823,2.823,0,0,1,2.823-2.823,2.823,2.823,0,0,1,2.823,2.823A2.822,2.822,0,0,1-173.936,125.717Z" transform="translate(182.414 -114.421)" fill="#fff"/>
    <path id="Path_2665" data-name="Path 2665" d="M-286.107-1.006c-.14-2.976-1.737-4.78-4.927-4.927-1.56-.073-5.422-.069-6.983,0a5.065,5.065,0,0,0-3.557,1.371C-303.2-2.933-303-.736-303,2.486c0,3.3-.184,5.443,1.422,7.048,1.637,1.636,3.865,1.422,7.048,1.422,3.266,0,4.393,0,5.548-.445,1.57-.61,2.755-2.013,2.871-4.534C-286.034,4.417-286.038.554-286.107-1.006Zm-2.459,9.462h0c-1.069,1.069-2.551.973-5.981.973-3.532,0-4.948.052-5.981-.984-1.19-1.184-.975-3.087-.975-5.97,0-3.9-.4-6.713,3.516-6.913.9-.032,1.165-.042,3.43-.042l.032.021c3.764,0,6.717-.394,6.894,3.522.04.893.049,1.162.049,3.423C-287.582,5.975-287.515,7.4-288.566,8.455Z" transform="translate(303.005 5.987)" fill="#fff"/>
    <circle id="Ellipse_7" data-name="Ellipse 7" cx="1.016" cy="1.016" r="1.016" transform="translate(11.672 4.501) rotate(-67.5)" fill="#fff"/>
  </g>
</svg>
