<svg xmlns="http://www.w3.org/2000/svg" width="33" height="33" viewBox="0 0 33 33">
  <g id="Group_1473" data-name="Group 1473" transform="translate(-421 -1450)">
    <path id="Path_2887" data-name="Path 2887" d="M16.5,0C29.306,0,33,3.694,33,16.5S29.306,33,16.5,33,0,29.306,0,16.5,3.694,0,16.5,0Z" transform="translate(421 1450)" fill="rgba(21,89,166,0.05)"/>
    <g id="vuesax_bulk_unlimited" data-name="vuesax/bulk/unlimited" transform="translate(252.452 1137.452)">
      <g id="unlimited" transform="translate(172 316)">
        <path id="Vector" d="M0,0H27.1V27.1H0Z" transform="translate(27.096 27.096) rotate(180)" fill="none" opacity="0"/>
        <path id="Vector-2" data-name="Vector" d="M18.3,12A5.872,5.872,0,0,1,13.514,9.54a.859.859,0,0,1,.181-1.185.849.849,0,0,1,1.185.181A4.222,4.222,0,0,0,18.3,10.3a4.29,4.29,0,0,0,0-8.58,4.634,4.634,0,0,0-3.94,2.224L11.369,8.919a6.305,6.305,0,0,1-5.385,3.048A5.984,5.984,0,1,1,5.984,0a5.872,5.872,0,0,1,4.787,2.461.859.859,0,0,1-.181,1.185A.848.848,0,0,1,9.4,3.466,4.222,4.222,0,0,0,5.984,1.7a4.29,4.29,0,1,0,0,8.58,4.634,4.634,0,0,0,3.94-2.224l2.992-4.979A6.305,6.305,0,0,1,18.3.034,5.984,5.984,0,1,1,18.3,12Z" transform="translate(1.4 7.53)" fill="#1559a6" opacity="0.4"/>
        <path id="Vector-3" data-name="Vector" d="M4.516,2.258A2.258,2.258,0,1,1,2.258,0,2.258,2.258,0,0,1,4.516,2.258Z" transform="translate(5.08 11.29)" fill="#1559a6"/>
        <path id="Vector-4" data-name="Vector" d="M4.516,2.258A2.258,2.258,0,1,1,2.258,0,2.258,2.258,0,0,1,4.516,2.258Z" transform="translate(17.499 11.29)" fill="#1559a6"/>
      </g>
    </g>
  </g>
</svg>
