<svg xmlns="http://www.w3.org/2000/svg" width="29.733" height="29.733" viewBox="0 0 29.733 29.733">
  <g id="Group_1194" data-name="Group 1194" transform="translate(0)">
    <circle id="Oval" cx="14.867" cy="14.867" r="14.867" transform="translate(0)" fill="#1559a6"/>
    <path id="Path_2663" data-name="Path 2663" d="M183.263,33.872H179.9V23.021h3.361Zm.335-14.308a1.968,1.968,0,1,0-1.967,1.969A1.969,1.969,0,0,0,183.6,19.564ZM195.842,27.9c0-2.913-.615-5.073-4.018-5.073a3.488,3.488,0,0,0-3.181,1.668h0V23.021h-3.265V33.872h3.265V28.484c0-1.411.359-2.778,2.108-2.778,1.725,0,1.781,1.613,1.781,2.867v5.3h3.313Z" transform="translate(-172.839 -11.618)" fill="#fff"/>
  </g>
</svg>
