<svg xmlns="http://www.w3.org/2000/svg" width="255.001" height="74.261" viewBox="0 0 255.001 74.261">
  <g id="logo_yellew" transform="translate(-178.64 -233.736)">
    <g id="Group_1469" data-name="Group 1469" transform="translate(237.245 248.241)">
      <path id="Path_2856" data-name="Path 2856" d="M312.484,307.356a5.141,5.141,0,0,1-3.661-1.274,4.224,4.224,0,0,1-1.362-3.224V291.91q0-3.549-1.45-5.136a5.3,5.3,0,0,0-4.124-1.588,4.528,4.528,0,0,0-3.624,1.613,6.866,6.866,0,0,0-1.375,4.586v15.97h-2.049a4.824,4.824,0,0,1-3.512-1.274,4.3,4.3,0,0,1-1.312-3.224V290.935a12.9,12.9,0,0,1,.749-4.324,11.257,11.257,0,0,1,2.25-3.8,10.8,10.8,0,0,1,3.862-2.687,14.113,14.113,0,0,1,5.586-1.012,13.26,13.26,0,0,1,4.6.788,10.57,10.57,0,0,1,3.762,2.35,11.365,11.365,0,0,1,2.561,3.836,13.4,13.4,0,0,1,.95,5.2v16.071Z" transform="translate(-290.015 -269.741)" fill="#ffd600"/>
      <path id="Path_2857" data-name="Path 2857" d="M368.92,289.81a5.3,5.3,0,0,1-3.074,5.237q-3.074,1.462-9.872,1.462h-4.5A6.047,6.047,0,0,0,354,300.645a8.627,8.627,0,0,0,5.2,1.537,19.869,19.869,0,0,0,4.474-.537,8.593,8.593,0,0,0,3.975-2.062h.25v2.15a6.088,6.088,0,0,1-.488,2.449,4.815,4.815,0,0,1-1.662,1.975,9.086,9.086,0,0,1-3.1,1.337,19.566,19.566,0,0,1-4.724.487,13.461,13.461,0,0,1-5.024-.975,13.319,13.319,0,0,1-4.349-2.8,13.919,13.919,0,0,1-3.049-4.374,13.764,13.764,0,0,1-1.15-5.723,18.364,18.364,0,0,1,1-6.235,13.8,13.8,0,0,1,2.787-4.736,11.977,11.977,0,0,1,4.274-2.987,14.054,14.054,0,0,1,5.461-1.038,11.8,11.8,0,0,1,4.136.738,10.947,10.947,0,0,1,3.524,2.112A10.223,10.223,0,0,1,368,285.337,10.537,10.537,0,0,1,368.92,289.81Zm-6.448-.825a3.6,3.6,0,0,0-1.412-3.123,6.363,6.363,0,0,0-3.811-1.025,5.339,5.339,0,0,0-2.275.487,6.184,6.184,0,0,0-1.824,1.275,5.5,5.5,0,0,0-1.2,1.862,6.856,6.856,0,0,0-.475,2.249l-.051.925h3.049q2.474,0,4.012-.15a10.631,10.631,0,0,0,2.424-.463,2.334,2.334,0,0,0,1.225-.824A2.155,2.155,0,0,0,362.472,288.985Z" transform="translate(-315.76 -269.741)" fill="#ffd600"/>
      <path id="Path_2858" data-name="Path 2858" d="M399.5,275.753a11.855,11.855,0,0,1,.113-1.762,6.971,6.971,0,0,1,.337-1.35,4.754,4.754,0,0,1,.613-1.15q.387-.537.937-1.212a7.433,7.433,0,0,1,1.562-1.362,3.063,3.063,0,0,1,1.662-.537h1.6v6.249h9.573v2.824a3.274,3.274,0,0,1-1,2.174,3.987,3.987,0,0,1-3.1,1.1h-5.473v10.8a5.344,5.344,0,0,0,1.125,3.837,4.332,4.332,0,0,0,3.224,1.138,9.686,9.686,0,0,0,4.949-.975h.275v2.449a4.1,4.1,0,0,1-1.512,3.374,7.1,7.1,0,0,1-4.536,1.225q-5.274,0-7.811-2.687t-2.537-7.535Z" transform="translate(-341.887 -264.655)" fill="#ffd600"/>
      <path id="Path_2859" data-name="Path 2859" d="M473.264,268.425a16.45,16.45,0,0,0-1.775-.424,12.4,12.4,0,0,0-2.224-.175,8.979,8.979,0,0,0-1.962.2,3.479,3.479,0,0,0-2.562,2.175,5.952,5.952,0,0,0-.375,2.275v2.449h7.872v1.9a3.071,3.071,0,0,1-.437,1.637,4.23,4.23,0,0,1-1.15,1.225,5.3,5.3,0,0,1-1.588.774,6.051,6.051,0,0,1-1.749.262h-2.949v18.42h-2.775a4.15,4.15,0,0,1-2.9-1.149,3.827,3.827,0,0,1-1.25-2.949V271.9a11.015,11.015,0,0,1,.538-3.187,9.384,9.384,0,0,1,1.824-3.3,10.588,10.588,0,0,1,3.324-2.587,10.969,10.969,0,0,1,5.061-1.05,6.038,6.038,0,0,1,3.762,1.15,3.791,3.791,0,0,1,1.512,3.2v2.3Z" transform="translate(-369.343 -261.527)" fill="#ffd600"/>
      <path id="Path_2860" data-name="Path 2860" d="M499.689,265.276a4.1,4.1,0,0,1-4.05,4.049,3.82,3.82,0,0,1-2.811-1.2,3.911,3.911,0,0,1-1.188-2.849,3.8,3.8,0,0,1,1.188-2.8,3.862,3.862,0,0,1,2.811-1.174,3.936,3.936,0,0,1,2.849,1.174A3.786,3.786,0,0,1,499.689,265.276Zm4.923,29.742a4.423,4.423,0,0,1-.95,3.2,4.339,4.339,0,0,1-3.149.95,8.123,8.123,0,0,1-6.124-2.2q-2.124-2.2-2.124-6.4V271.9h1.95a4.977,4.977,0,0,1,3.6,1.25,5.118,5.118,0,0,1,1.3,3.849V289.92a3.519,3.519,0,0,0,.95,2.862,5.284,5.284,0,0,0,3.249.762h1.3Z" transform="translate(-385.546 -261.302)" fill="#ffd600"/>
      <path id="Path_2861" data-name="Path 2861" d="M548.377,285.221a17.376,17.376,0,0,1-.975,5.849,14.48,14.48,0,0,1-2.736,4.761,12.839,12.839,0,0,1-4.324,3.2,13.363,13.363,0,0,1-5.686,1.187,12.444,12.444,0,0,1-9.135-3.924,14.272,14.272,0,0,1-2.812-4.462,15.047,15.047,0,0,1-1.05-5.711V262.727h2.35a4.625,4.625,0,0,1,3.262,1.162,4.684,4.684,0,0,1,1.262,3.611v8.023a11.281,11.281,0,0,1,1.212-1.5,8.637,8.637,0,0,1,1.638-1.337,9.13,9.13,0,0,1,2.074-.962,8.205,8.205,0,0,1,2.55-.375,11.857,11.857,0,0,1,4.874,1.012,11.557,11.557,0,0,1,3.936,2.862,13.646,13.646,0,0,1,2.612,4.386A15.9,15.9,0,0,1,548.377,285.221Zm-7.1,1.174a17.427,17.427,0,0,0-.437-4.237,7.156,7.156,0,0,0-1.287-2.761,4.835,4.835,0,0,0-2.074-1.512,7.98,7.98,0,0,0-2.825-.462,4.9,4.9,0,0,0-2.424.612,6.409,6.409,0,0,0-1.912,1.638,7.733,7.733,0,0,0-1.274,2.462,9.758,9.758,0,0,0-.463,3.012q0,4.774,1.863,6.873a6.273,6.273,0,0,0,4.936,2.1,4.821,4.821,0,0,0,2.35-.587,6.048,6.048,0,0,0,1.874-1.613,7.54,7.54,0,0,0,1.237-2.437A10.387,10.387,0,0,0,541.279,286.4Z" transform="translate(-399.769 -261.977)" fill="#ffd600"/>
      <path id="Path_2862" data-name="Path 2862" d="M602.893,289.81a5.3,5.3,0,0,1-3.075,5.237q-3.074,1.462-9.873,1.462h-4.5a6.049,6.049,0,0,0,2.525,4.137,8.63,8.63,0,0,0,5.2,1.537,19.875,19.875,0,0,0,4.474-.537,8.6,8.6,0,0,0,3.974-2.062h.25v2.15a6.1,6.1,0,0,1-.487,2.449,4.82,4.82,0,0,1-1.662,1.975,9.086,9.086,0,0,1-3.1,1.337,19.575,19.575,0,0,1-4.724.487,13.612,13.612,0,0,1-9.372-3.774,13.921,13.921,0,0,1-3.049-4.374,13.764,13.764,0,0,1-1.15-5.723,18.367,18.367,0,0,1,1-6.235,13.812,13.812,0,0,1,2.787-4.736,11.975,11.975,0,0,1,4.274-2.987,14.057,14.057,0,0,1,5.461-1.038,11.8,11.8,0,0,1,4.136.738,10.949,10.949,0,0,1,3.524,2.112,10.228,10.228,0,0,1,2.462,3.375A10.538,10.538,0,0,1,602.893,289.81Zm-6.449-.825a3.6,3.6,0,0,0-1.412-3.123,6.362,6.362,0,0,0-3.811-1.025,5.336,5.336,0,0,0-2.274.487,6.178,6.178,0,0,0-1.825,1.275,5.512,5.512,0,0,0-1.2,1.862,6.87,6.87,0,0,0-.476,2.249l-.05.925h3.049q2.474,0,4.011-.15a10.627,10.627,0,0,0,2.424-.463,2.33,2.33,0,0,0,1.224-.824A2.152,2.152,0,0,0,596.444,288.985Z" transform="translate(-426.617 -269.741)" fill="#ffd600"/>
      <path id="Path_2863" data-name="Path 2863" d="M648.665,286.726a16.29,16.29,0,0,0-1.724-.549,9.026,9.026,0,0,0-2.274-.25,4.514,4.514,0,0,0-3.524,1.35q-1.225,1.35-1.225,4.524v15.871h-1.9a5.576,5.576,0,0,1-3.661-1.124,4,4,0,0,1-1.362-3.274v-12.7a14.632,14.632,0,0,1,.563-4.024,9.319,9.319,0,0,1,1.787-3.449,9.146,9.146,0,0,1,3.174-2.4,10.829,10.829,0,0,1,4.674-.925,7.636,7.636,0,0,1,2.674.413,5.061,5.061,0,0,1,1.762,1.05,3.974,3.974,0,0,1,.974,1.45,4.4,4.4,0,0,1,.313,1.586v2.449Z" transform="translate(-452.52 -270.056)" fill="#ffd600"/>
    </g>
    <g id="Group_1470" data-name="Group 1470" transform="translate(178.64 233.736)">
      <path id="Path_2864" data-name="Path 2864" d="M185.846,284.959a7.2,7.2,0,1,0,7.206,7.2A7.2,7.2,0,0,0,185.846,284.959Z" transform="translate(-178.64 -258.006)" fill="#ffd600"/>
      <path id="Path_2865" data-name="Path 2865" d="M255.736,267.166a46.581,46.581,0,0,1-14.494,33.82l-2.85-2.85.062-.082a36.054,36.054,0,0,0,6.574-28.413c-.169-.909-.38-1.8-.616-2.691a35.267,35.267,0,0,0-10.78-25.207l8.007-8.007A46.521,46.521,0,0,1,255.736,267.166Z" transform="translate(-204.695 -233.736)" fill="#ffd600"/>
      <path id="Path_2866" data-name="Path 2866" d="M240.012,281.493a35.341,35.341,0,0,0-15.459-23.024,32.79,32.79,0,0,1,7.329,26.255q-.139.878-.324,1.741a35.673,35.673,0,0,1-.842,16.425c-.267.909-.565,1.8-.909,2.681l3.765,3.764a35.373,35.373,0,0,0,6.44-27.842Z" transform="translate(-200.394 -245.455)" fill="#ffd600"/>
      <path id="Path_2867" data-name="Path 2867" d="M213.135,255.62c-.235-.133-.476-.26-.716-.388l-3.248,3.246-2.9,2.9-1.212,1.207a21.418,21.418,0,0,1,.436,30.548l7.519,7.519a32.048,32.048,0,0,0,.118-45.032Z" transform="translate(-191.159 -243.921)" fill="#ffd600"/>
      <path id="Path_2868" data-name="Path 2868" d="M206.274,264.346l2.847-2.849-4.059,4.056Z" transform="translate(-191.159 -246.889)" fill="#ffd600"/>
      <line id="Line_83" data-name="Line 83" x1="7.519" y1="7.519" transform="translate(14.339 49.213)" fill="#ffd600"/>
      <path id="Path_2869" data-name="Path 2869" d="M241.672,355.116l-3.369-3.369-3.765-3.765" transform="translate(-205.125 -287.866)" fill="#ffd600"/>
    </g>
    <g id="Group_1471" data-name="Group 1471" transform="translate(264.642 291.821)">
      <path id="Path_2870" data-name="Path 2870" d="M342.081,362.984l.331-.81a2.638,2.638,0,0,0,1.178.276,2.364,2.364,0,0,0,1.932-.92l.847-1.251-2.153-9.79h.976l1.877,8.668,5.337-8.668h.993l-6.68,10.84a3.6,3.6,0,0,1-3.147,1.987A3.244,3.244,0,0,1,342.081,362.984Z" transform="translate(-342.081 -347.139)" fill="#ffd600"/>
      <path id="Path_2871" data-name="Path 2871" d="M364.25,355.424a5.188,5.188,0,0,0-.037.534,3.008,3.008,0,0,0,3.037,3.22,5.581,5.581,0,0,0,3.588-1.288l.5.681a6.962,6.962,0,0,1-4.233,1.454,3.759,3.759,0,0,1-3.791-3.994,6.163,6.163,0,0,1,5.815-5.962c1.932,0,3.4,1.05,3.4,2.614,0,1.674-1.656,2.742-4.472,2.742Zm.184-.847h3.791c2.153,0,3.423-.681,3.423-1.84,0-1.086-1.1-1.822-2.631-1.822A5.07,5.07,0,0,0,364.434,354.577Z" transform="translate(-352.14 -346.94)" fill="#ffd600"/>
      <path id="Path_2872" data-name="Path 2872" d="M390.671,352.828c0,.589-.111.9-1.38,6.975h-.9c1.214-5.834,1.343-6.238,1.343-6.772a2.016,2.016,0,0,0-2.208-2.116,3.785,3.785,0,0,0-3.607,2.632L382.61,359.8h-.9l1.987-9.514h.9l-.331,1.564a4.126,4.126,0,0,1,3.423-1.785A2.7,2.7,0,0,1,390.671,352.828Z" transform="translate(-360.857 -346.94)" fill="#ffd600"/>
      <path id="Path_2873" data-name="Path 2873" d="M402.688,347.505h.9L401.6,357.02h-.9Zm.276-2.558a.78.78,0,0,1,.736-.755.576.576,0,0,1,.608.589.794.794,0,0,1-.736.754A.575.575,0,0,1,402.964,344.948Z" transform="translate(-369.855 -344.156)" fill="#ffd600"/>
      <path id="Path_2874" data-name="Path 2874" d="M425.367,352.828c0,.589-.11.9-1.381,6.975h-.9c1.214-5.834,1.343-6.238,1.343-6.772a2.016,2.016,0,0,0-2.209-2.116,3.785,3.785,0,0,0-3.607,2.632l-1.307,6.256h-.9l1.988-9.514h.9l-.332,1.564a4.126,4.126,0,0,1,3.423-1.785A2.7,2.7,0,0,1,425.367,352.828Z" transform="translate(-377.295 -346.94)" fill="#ffd600"/>
      <path id="Path_2875" data-name="Path 2875" d="M437.1,355.424a5.2,5.2,0,0,0-.037.534,3.008,3.008,0,0,0,3.036,3.22,5.584,5.584,0,0,0,3.589-1.288l.5.681a6.959,6.959,0,0,1-4.233,1.454,3.759,3.759,0,0,1-3.791-3.994,6.163,6.163,0,0,1,5.816-5.962c1.932,0,3.4,1.05,3.4,2.614,0,1.674-1.656,2.742-4.472,2.742Zm.184-.847h3.791c2.153,0,3.423-.681,3.423-1.84,0-1.086-1.1-1.822-2.632-1.822A5.071,5.071,0,0,0,437.288,354.577Z" transform="translate(-386.659 -346.94)" fill="#ffd600"/>
      <path id="Path_2876" data-name="Path 2876" d="M453.934,358.589l.589-.644a5.064,5.064,0,0,0,3.147,1.233c1.417,0,2.908-.847,2.908-2.079,0-.737-.644-1.233-2.153-1.767-1.914-.571-2.724-1.252-2.724-2.282,0-1.766,1.822-2.981,3.717-2.981a5.746,5.746,0,0,1,3.239,1.086l-.589.662a4.757,4.757,0,0,0-2.687-.9c-1.472,0-2.76.883-2.76,1.932,0,.662.662,1.159,2.245,1.748,1.858.589,2.632,1.27,2.632,2.355,0,1.767-1.951,3.074-3.865,3.074A5.486,5.486,0,0,1,453.934,358.589Z" transform="translate(-395.077 -346.94)" fill="#ffd600"/>
      <path id="Path_2877" data-name="Path 2877" d="M472.814,347.505h.9l-1.987,9.514h-.9Zm.276-2.558a.78.78,0,0,1,.736-.755.575.575,0,0,1,.607.589.794.794,0,0,1-.736.754A.575.575,0,0,1,473.09,344.948Z" transform="translate(-403.081 -344.156)" fill="#ffd600"/>
      <path id="Path_2878" data-name="Path 2878" d="M479.79,344.123h.9l-2.668,12.863h-.9Z" transform="translate(-406.064 -344.123)" fill="#ffd600"/>
      <path id="Path_2879" data-name="Path 2879" d="M494.743,347.505h.9l-1.987,9.514h-.9Zm.276-2.558a.78.78,0,0,1,.736-.755.575.575,0,0,1,.607.589.794.794,0,0,1-.736.754A.575.575,0,0,1,495.02,344.948Z" transform="translate(-413.471 -344.156)" fill="#ffd600"/>
      <path id="Path_2880" data-name="Path 2880" d="M508.014,352.828c0,.589-.111.9-1.38,6.975h-.9c1.214-5.834,1.343-6.238,1.343-6.772a2.016,2.016,0,0,0-2.208-2.116,3.785,3.785,0,0,0-3.607,2.632l-1.306,6.256h-.9l1.987-9.514h.9l-.331,1.564a4.125,4.125,0,0,1,3.423-1.785A2.7,2.7,0,0,1,508.014,352.828Z" transform="translate(-416.454 -346.94)" fill="#ffd600"/>
      <path id="Path_2881" data-name="Path 2881" d="M522.7,348.982c-1.38,6.625-1.418,6.644-1.418,6.956,0,.663.35,1.086.883,1.086a2.3,2.3,0,0,0,1.362-.478l.405.736a3.506,3.506,0,0,1-1.859.589,1.649,1.649,0,0,1-1.692-1.822c0-.478.091-.809,1.416-7.066h-1.619l.165-.847h1.619l.553-2.613h.9l-.552,2.613h2.448l-.184.847Z" transform="translate(-426.463 -344.786)" fill="#ffd600"/>
      <path id="Path_2882" data-name="Path 2882" d="M531.818,355.424a5.309,5.309,0,0,0-.036.534,3.008,3.008,0,0,0,3.036,3.22,5.583,5.583,0,0,0,3.589-1.288l.5.681a6.96,6.96,0,0,1-4.233,1.454,3.759,3.759,0,0,1-3.791-3.994,6.163,6.163,0,0,1,5.815-5.962c1.932,0,3.4,1.05,3.4,2.614,0,1.674-1.656,2.742-4.471,2.742Zm.185-.847h3.791c2.153,0,3.423-.681,3.423-1.84,0-1.086-1.1-1.822-2.631-1.822A5.069,5.069,0,0,0,532,354.577Z" transform="translate(-431.535 -346.94)" fill="#ffd600"/>
      <path id="Path_2883" data-name="Path 2883" d="M556.075,350.068l-.128.847a4.553,4.553,0,0,0-4.417,3.441l-1.141,5.447h-.9l1.987-9.514h.9l-.405,1.969A4.615,4.615,0,0,1,556.075,350.068Z" transform="translate(-440.35 -346.94)" fill="#ffd600"/>
      <path id="Path_2884" data-name="Path 2884" d="M570.166,352.828c0,.589-.111.9-1.38,6.975h-.9c1.214-5.834,1.343-6.238,1.343-6.772a2.016,2.016,0,0,0-2.208-2.116,3.786,3.786,0,0,0-3.607,2.632l-1.306,6.256h-.9l1.987-9.514h.9l-.331,1.564a4.126,4.126,0,0,1,3.423-1.785A2.7,2.7,0,0,1,570.166,352.828Z" transform="translate(-445.902 -346.94)" fill="#ffd600"/>
      <path id="Path_2885" data-name="Path 2885" d="M581.9,355.424a5.328,5.328,0,0,0-.036.534,3.008,3.008,0,0,0,3.036,3.22,5.583,5.583,0,0,0,3.589-1.288l.5.681a6.962,6.962,0,0,1-4.233,1.454,3.759,3.759,0,0,1-3.791-3.994,6.163,6.163,0,0,1,5.816-5.962c1.932,0,3.4,1.05,3.4,2.614,0,1.674-1.656,2.742-4.472,2.742Zm.184-.847h3.791c2.153,0,3.423-.681,3.423-1.84,0-1.086-1.1-1.822-2.631-1.822A5.07,5.07,0,0,0,582.087,354.577Z" transform="translate(-455.265 -346.94)" fill="#ffd600"/>
      <path id="Path_2886" data-name="Path 2886" d="M603.947,348.982c-1.38,6.625-1.417,6.644-1.417,6.956,0,.663.35,1.086.884,1.086a2.307,2.307,0,0,0,1.362-.478l.4.736a3.507,3.507,0,0,1-1.859.589,1.65,1.65,0,0,1-1.692-1.822c0-.478.091-.809,1.416-7.066h-1.619l.165-.847h1.619l.553-2.613h.9l-.553,2.613h2.448l-.184.847Z" transform="translate(-464.959 -344.786)" fill="#ffd600"/>
    </g>
  </g>
</svg>
