<svg id="Group_1190" data-name="Group 1190" xmlns="http://www.w3.org/2000/svg" width="34.608" height="26.337" viewBox="0 0 34.608 26.337">
  <g id="Group_1189" data-name="Group 1189">
    <path id="Path_2673" data-name="Path 2673" d="M30.383,57.75H4.232A4.236,4.236,0,0,0,0,61.982V79.855a4.236,4.236,0,0,0,4.232,4.232H30.376a4.236,4.236,0,0,0,4.232-4.232V61.989A4.231,4.231,0,0,0,30.383,57.75Zm2.3,22.105a2.3,2.3,0,0,1-2.3,2.3H4.232a2.3,2.3,0,0,1-2.3-2.3V61.989a2.3,2.3,0,0,1,2.3-2.3H30.376a2.3,2.3,0,0,1,2.3,2.3V79.855Z" transform="translate(0 -57.75)" fill="#1559a6"/>
    <path id="Path_2674" data-name="Path 2674" d="M73.586,118.186l8.464-7.59a.968.968,0,1,0-1.3-1.439L69.082,119.632,66.8,117.6c-.007-.007-.014-.014-.014-.021a1.432,1.432,0,0,0-.158-.136l-9.266-8.292a.969.969,0,0,0-1.289,1.446l8.564,7.655-8.528,7.984a.971.971,0,0,0-.043,1.368.989.989,0,0,0,.709.308.969.969,0,0,0,.659-.258l8.657-8.1,2.349,2.1a.964.964,0,0,0,1.289-.007l2.413-2.163,8.607,8.178a.969.969,0,0,0,1.368-.036.971.971,0,0,0-.036-1.368Z" transform="translate(-51.76 -105.24)" fill="#1559a6"/>
  </g>
</svg>
