<svg id="Component_19_1" data-name="Component 19 – 1" xmlns="http://www.w3.org/2000/svg" xmlns:xlink="http://www.w3.org/1999/xlink" width="601.429" height="266.01" viewBox="0 0 601.429 266.01">
  <defs>
    <linearGradient id="linear-gradient" x1="0.048" y1="0.093" x2="0.964" y2="0.74" gradientUnits="objectBoundingBox">
      <stop offset="0" stop-color="#1559a6" stop-opacity="0.071"/>
      <stop offset="1" stop-color="#1559a6" stop-opacity="0.6"/>
    </linearGradient>
  </defs>
  <path id="Path_2890" data-name="Path 2890" d="M-623.021,5859.471a3.615,3.615,0,0,1-5.112.07,3.615,3.615,0,0,1-.071-5.112l5.789-5.927a3.615,3.615,0,0,1,.578-.482,3.656,3.656,0,0,1,.459-.58l3.973-4.067a3.616,3.616,0,0,1,5.112-.071,3.615,3.615,0,0,1,.071,5.112l-3.973,4.068a3.7,3.7,0,0,1-.578.483,3.793,3.793,0,0,1-.459.579l-5.79,5.927Zm577.673,183.382a3.614,3.614,0,0,1-5.112.071,3.616,3.616,0,0,1-.071-5.113l1.9-1.947a3.614,3.614,0,0,1,5.111-.07,3.616,3.616,0,0,1,.072,5.112l-1.9,1.947Zm-17.885-2.629a3.615,3.615,0,0,1-5.112.071,3.616,3.616,0,0,1-.072-5.112l12.408-12.7a3.616,3.616,0,0,1,5.113-.072,3.617,3.617,0,0,1,.07,5.113l-12.407,12.7Zm-22.495,2.089a3.616,3.616,0,0,1-5.112.07,3.616,3.616,0,0,1-.071-5.112l27.846-28.508a3.617,3.617,0,0,1,5.113-.07,3.616,3.616,0,0,1,.071,5.111l-27.847,28.51Zm-19.218-1.266a3.615,3.615,0,0,1-5.112.071,3.615,3.615,0,0,1-.07-5.112l46.523-47.628a3.615,3.615,0,0,1,5.113-.071,3.615,3.615,0,0,1,.07,5.111l-46.523,47.628Zm-28.415,8.15a3.615,3.615,0,0,1-5.111.071,3.615,3.615,0,0,1-.071-5.112l5.5-5.632c.049-.05.1-.1.146-.144s.084-.091.127-.136L-70.8,5974.8a3.615,3.615,0,0,1,5.112-.07,3.615,3.615,0,0,1,.071,5.113l-61.973,63.445c-.047.048-.1.1-.146.143s-.083.094-.126.138l-5.5,5.63Zm-26.038,5.717a3.615,3.615,0,0,1-5.112.07,3.615,3.615,0,0,1-.071-5.112l89.771-91.9a3.617,3.617,0,0,1,5.113-.07,3.616,3.616,0,0,1,.07,5.112l-89.771,91.9Zm-27.275,6.984a3.614,3.614,0,0,1-5.113.068,3.615,3.615,0,0,1-.072-5.111l126.987-130a3.617,3.617,0,0,1,5.113-.071,3.616,3.616,0,0,1,.071,5.112l-126.986,130Zm-33.126,12.972a3.616,3.616,0,0,1-5.113.071,3.615,3.615,0,0,1-.069-5.112L-78.9,5920.279a3.615,3.615,0,0,1,5.113-.071,3.615,3.615,0,0,1,.071,5.112L-219.8,6074.871Zm-19.965-.5a3.617,3.617,0,0,1-5.113.072,3.616,3.616,0,0,1-.071-5.113l150.721-154.3a3.618,3.618,0,0,1,5.113-.07,3.617,3.617,0,0,1,.071,5.113l-150.721,154.3Zm-12.777-7.86a3.614,3.614,0,0,1-5.111.071,3.615,3.615,0,0,1-.071-5.112l161.96-165.809a3.615,3.615,0,0,1,5.111-.071,3.615,3.615,0,0,1,.071,5.113l-161.96,165.808Zm-31.666,11.479a3.614,3.614,0,0,1-5.112.07,3.616,3.616,0,0,1-.072-5.112l185.484-189.891a3.617,3.617,0,0,1,5.113-.071,3.617,3.617,0,0,1,.071,5.113L-284.209,6077.99Zm-47.347,27.533a3.617,3.617,0,0,1-5.113.07,3.616,3.616,0,0,1-.071-5.113l23.12-23.669a3.614,3.614,0,0,1,5.112-.07,3.614,3.614,0,0,1,.072,5.111l-23.12,23.671Zm31.732-32.487a3.614,3.614,0,0,1-5.112.07,3.616,3.616,0,0,1-.072-5.113l189.986-194.5a3.615,3.615,0,0,1,5.113-.07,3.617,3.617,0,0,1,.072,5.112l-189.987,194.5Zm-22.542,2.138a3.617,3.617,0,0,1-5.113.071,3.616,3.616,0,0,1-.07-5.113l199.48-204.221.011-.012.017-.017,1.063-1.089a3.615,3.615,0,0,1,5.112-.069,3.616,3.616,0,0,1,.071,5.113l-1.063,1.087-.012.012-.017.018-199.48,204.22Zm-28.083,7.81a3.616,3.616,0,0,1-5.113.071,3.614,3.614,0,0,1-.07-5.111l206.394-211.3a3.616,3.616,0,0,1,5.113-.071,3.616,3.616,0,0,1,.071,5.112l-206.395,211.3Zm-13.7-6.912a3.617,3.617,0,0,1-5.113.071,3.615,3.615,0,0,1-.07-5.112l186.2-190.629a3.615,3.615,0,0,1,5.113-.07,3.613,3.613,0,0,1,.069,5.111l-186.2,190.629Zm-42.335,22.4a3.617,3.617,0,0,1-5.113.07,3.616,3.616,0,0,1-.07-5.113l.878-.9c.049-.051.1-.1.15-.146s.085-.1.13-.141L-215.3,5892.4a3.615,3.615,0,0,1,5.113-.071,3.617,3.617,0,0,1,.071,5.113l-195.207,199.847c-.05.05-.1.1-.151.145s-.085.1-.13.142l-.877.9Zm-24.542,4.185a3.616,3.616,0,0,1-5.113.071,3.616,3.616,0,0,1-.071-5.112l203.951-208.8a3.618,3.618,0,0,1,5.113-.071,3.616,3.616,0,0,1,.07,5.113l-203.951,208.8Zm-14.922-5.665a3.616,3.616,0,0,1-5.113.072,3.616,3.616,0,0,1-.07-5.113l191.426-195.975a3.616,3.616,0,0,1,5.113-.071,3.616,3.616,0,0,1,.072,5.112l-191.427,195.975Zm-8.924-11.8a3.614,3.614,0,0,1-5.112.071,3.616,3.616,0,0,1-.07-5.113l183.062-187.413a3.615,3.615,0,0,1,5.112-.07,3.616,3.616,0,0,1,.072,5.112l-183.064,187.413Zm-12.464-8.179a3.616,3.616,0,0,1-5.113.07,3.617,3.617,0,0,1-.071-5.113l178.87-183.12a3.614,3.614,0,0,1,5.111-.07,3.615,3.615,0,0,1,.07,5.113l-178.869,183.119Zm-13.512-7.108a3.616,3.616,0,0,1-5.112.07,3.616,3.616,0,0,1-.07-5.113l179.63-183.9a3.614,3.614,0,0,1,5.112-.07,3.615,3.615,0,0,1,.072,5.112l-179.631,183.9Zm-40.331,20.35a3.618,3.618,0,0,1-5.112.071,3.617,3.617,0,0,1-.07-5.113l17.68-18.1a3.615,3.615,0,0,1,5.112-.07,3.613,3.613,0,0,1,.07,5.11l-17.68,18.1Zm23.707-24.272a3.615,3.615,0,0,1-5.112.071,3.616,3.616,0,0,1-.07-5.112l176.76-180.962a3.617,3.617,0,0,1,5.113-.07,3.617,3.617,0,0,1,.07,5.113l-84.992,87.011-91.768,93.949Zm-44.132,24.24a3.614,3.614,0,0,1-5.112.071,3.615,3.615,0,0,1-.071-5.112l214.063-219.15a3.616,3.616,0,0,1,5.113-.07,3.615,3.615,0,0,1,.071,5.112L-541.6,6090.22Zm-10.974-9.7a3.617,3.617,0,0,1-5.113.07,3.617,3.617,0,0,1-.07-5.113L-353.537,5866.4a3.617,3.617,0,0,1,5.112-.07,3.614,3.614,0,0,1,.07,5.112l-204.223,209.077Zm-10.716-9.969a3.617,3.617,0,0,1-5.113.069,3.615,3.615,0,0,1-.07-5.112l207.661-212.6a3.615,3.615,0,0,1,5.112-.071,3.615,3.615,0,0,1,.071,5.112l-207.661,212.6Zm-21.67,1.244a3.615,3.615,0,0,1-5.112.07,3.616,3.616,0,0,1-.07-5.113l206.354-211.259a3.617,3.617,0,0,1,5.112-.07,3.617,3.617,0,0,1,.071,5.113L-584.964,6071.79Zm-16.548-4a3.616,3.616,0,0,1-5.113.07,3.616,3.616,0,0,1-.071-5.113l7.779-7.963a3.616,3.616,0,0,1,5.113-.07,3.616,3.616,0,0,1,.071,5.112l-7.778,7.963Zm13.48-13.8a3.617,3.617,0,0,1-5.112.07,3.617,3.617,0,0,1-.071-5.113L-403.5,5854.726a3.616,3.616,0,0,1,5.112-.069,3.614,3.614,0,0,1,.071,5.111l-189.714,194.224Zm-21.291.856a3.616,3.616,0,0,1-5.113.07,3.614,3.614,0,0,1-.07-5.111l1.247-1.277a3.516,3.516,0,0,1,.277-.258,3.492,3.492,0,0,1,.239-.271l186.259-190.686a3.616,3.616,0,0,1,5.112-.072,3.616,3.616,0,0,1,.071,5.113l-186.259,190.685a3.681,3.681,0,0,1-.278.258,3.51,3.51,0,0,1-.239.271l-1.247,1.277Zm-3.042-17.826a3.617,3.617,0,0,1-5.113.071,3.616,3.616,0,0,1-.07-5.112l153.494-157.142a3.615,3.615,0,0,1,5.113-.071,3.616,3.616,0,0,1,.071,5.113l-153.494,157.142Zm2.871-23.881a3.614,3.614,0,0,1-5.112.071,3.616,3.616,0,0,1-.07-5.113L-495.9,5886.5a3.617,3.617,0,0,1,5.113-.071,3.616,3.616,0,0,1,.071,5.112l-118.777,121.6Zm-12.835-7.8a3.614,3.614,0,0,1-5.112.069,3.615,3.615,0,0,1-.07-5.112l96.532-98.825h0l.005-.006c.037-.039.075-.079.114-.115l.511-.525,15.972-16.35a3.617,3.617,0,0,1,5.112-.072,3.617,3.617,0,0,1,.07,5.113l-15.971,16.352-.525.538-.016.018-.005.006v0l-.036.037-.006.006-96.574,98.869Zm-15.315-5.262a3.616,3.616,0,0,1-5.112.071,3.616,3.616,0,0,1-.071-5.112l14.874-15.227,5.79-5.928,0,0,3.847-3.938h0l.017-.017,54.507-55.8a3.616,3.616,0,0,1,5.113-.07,3.613,3.613,0,0,1,.07,5.11l-54.507,55.8-.016.017-9.641,9.872-14.874,15.226Zm84.967-86.986a3.614,3.614,0,0,1-5.112.071,3.615,3.615,0,0,1-.071-5.111l3.737-3.826a3.614,3.614,0,0,1,5.112-.071,3.615,3.615,0,0,1,.071,5.112l-3.737,3.825Zm13.058-13.368a3.615,3.615,0,0,1-5.112.07,3.614,3.614,0,0,1-.071-5.111l13.151-13.462a3.616,3.616,0,0,1,5.113-.072,3.616,3.616,0,0,1,.071,5.112l-13.151,13.463Zm-81.15,62.139a3.617,3.617,0,0,1-5.113.07,3.615,3.615,0,0,1-.071-5.112l44.521-45.579h0l.006-.005,2.2-2.252a3.616,3.616,0,0,1,5.112-.071,3.616,3.616,0,0,1,.071,5.112l-2.2,2.251,0,0-.005.006-44.521,45.579Zm64.6-66.135a3.615,3.615,0,0,1-5.112.071,3.617,3.617,0,0,1-.071-5.113l12.757-13.059a3.615,3.615,0,0,1,5.112-.071,3.616,3.616,0,0,1,.071,5.113l-12.757,13.058Zm-73.28,54.083a3.615,3.615,0,0,1-5.112.07,3.614,3.614,0,0,1-.07-5.112l34.3-35.117a3.616,3.616,0,0,1,5.113-.069,3.615,3.615,0,0,1,.07,5.112l-34.3,35.116Zm53.922-55.2a3.616,3.616,0,0,1-5.112.07,3.616,3.616,0,0,1-.071-5.112l18.449-18.888a3.616,3.616,0,0,1,5.112-.071,3.616,3.616,0,0,1,.071,5.112l-18.449,18.889Zm-61.127,41.64a3.616,3.616,0,0,1-5.112.07,3.615,3.615,0,0,1-.071-5.112l23.809-24.375a3.626,3.626,0,0,1,1.119-.782,3.613,3.613,0,0,1,.746-1.125l43.428-44.46a3.615,3.615,0,0,1,5.113-.071,3.616,3.616,0,0,1,.071,5.113l-43.428,44.459a3.574,3.574,0,0,1-1.119.782,3.6,3.6,0,0,1-.745,1.126l-23.809,24.376Zm10.09-31.271a3.616,3.616,0,0,1-5.112.07,3.616,3.616,0,0,1-.071-5.113l53.015-54.272a3.614,3.614,0,0,1,5.112-.071,3.615,3.615,0,0,1,.071,5.112l-53.014,54.273Zm.852-21.812a3.617,3.617,0,0,1-5.113.07,3.617,3.617,0,0,1-.07-5.113l9.594-9.821c.065-.066.133-.132.2-.194s.115-.13.176-.193l25.606-26.214a3.616,3.616,0,0,1,5.112-.071,3.616,3.616,0,0,1,.07,5.112l-25.606,26.213c-.065.067-.133.131-.2.193s-.115.131-.176.194l-9.594,9.823Z" transform="translate(643.85 -5840.607)" fill="url(#linear-gradient)"/>
</svg>
