<svg xmlns="http://www.w3.org/2000/svg" width="407.373" height="199.646" viewBox="0 0 407.373 199.646">
  <g id="Group_8051" data-name="Group 8051" transform="translate(-68.102 -183.672)">
    <g id="Group_8048" data-name="Group 8048">
      <path id="Path_2935" data-name="Path 2935" d="M251.342,323.827a32.765,32.765,0,1,1,28.465-48.993,7.006,7.006,0,0,0,8.451,3.026l.115-.041A6.978,6.978,0,0,0,292.1,267.8a46.935,46.935,0,1,0,0,46.534,6.977,6.977,0,0,0-3.725-10.023l-.115-.041a7.006,7.006,0,0,0-8.451,3.025A32.722,32.722,0,0,1,251.342,323.827Z" fill="#fff"/>
      <path id="Path_2936" data-name="Path 2936" d="M354.2,311.96l.22.079a6.994,6.994,0,0,1,3.3,10.664,32.758,32.758,0,1,1-.005-38.043,6.994,6.994,0,0,1-3.3,10.666l-.225.08a6.981,6.981,0,0,1-8.03-2.528,18.579,18.579,0,0,0-32.615,4.549,18.572,18.572,0,0,0-.01,12.51,18.586,18.586,0,0,0,32.634,4.55A6.982,6.982,0,0,1,354.2,311.96Z" fill="#fff"/>
      <rect id="Rectangle_3147" data-name="Rectangle 3147" width="14.173" height="97.559" rx="6.977" transform="translate(439.462 238.89)" fill="#fff"/>
      <rect id="Rectangle_3148" data-name="Rectangle 3148" width="14.173" height="97.559" rx="6.977" transform="translate(461.302 238.89)" fill="#fff"/>
      <path id="Path_2937" data-name="Path 2937" d="M425.329,313.447a6.979,6.979,0,0,0,6.944-6.217,33.173,33.173,0,0,0,.189-3.543,32.687,32.687,0,0,0-5.8-18.59,32.765,32.765,0,0,0-53.17-1.09c-.27.36-.53.72-.78,1.09a32.767,32.767,0,0,0,46.848,44.646,6.993,6.993,0,0,0-.01-11.158l-.187-.141a7.08,7.08,0,0,0-8.533.117,18.572,18.572,0,0,1-26.957-5.114Zm-43.687-14.18a18.592,18.592,0,0,1,18.05-14.17,18.608,18.608,0,0,1,18.05,14.17Z" fill="#fff"/>
    </g>
    <g id="Group_8050" data-name="Group 8050">
      <g id="Group_8049" data-name="Group 8049">
        <path id="Path_2938" data-name="Path 2938" d="M126.371,186.577l-.21-.267a6.924,6.924,0,0,0-10.005-.919,140.24,140.24,0,0,0-15.587,195.418,6.925,6.925,0,0,0,10.023.678l.249-.229a6.89,6.89,0,0,0,.642-9.465A126.115,126.115,0,0,1,125.5,196.025,6.894,6.894,0,0,0,126.371,186.577Z" fill="#ffe000"/>
        <path id="Path_2939" data-name="Path 2939" d="M147.427,213.348l-.208-.265a6.9,6.9,0,0,0-10.035-.886,106.268,106.268,0,0,0-11.614,145.47,6.907,6.907,0,0,0,10.058.723l.252-.232a6.919,6.919,0,0,0,.679-9.426,92.144,92.144,0,0,1,10.074-126A6.9,6.9,0,0,0,147.427,213.348Z" fill="#ffe000"/>
        <path id="Path_2940" data-name="Path 2940" d="M166.774,237.94l-.218-.277a6.906,6.906,0,0,0-10.214-.725,75.161,75.161,0,0,0-7.965,99.307,6.926,6.926,0,0,0,10.233.949l.259-.239a6.89,6.89,0,0,0,.85-9.2,60.989,60.989,0,0,1,6.467-80.619A6.878,6.878,0,0,0,166.774,237.94Z" fill="#ffe000"/>
      </g>
      <path id="Path_2941" data-name="Path 2941" d="M179.444,280.054a32.8,32.8,0,0,0,2.716,27.833,6.944,6.944,0,0,1-1.2,8.691l-.259.239a6.9,6.9,0,0,1-10.569-1.445,46.805,46.805,0,0,1,4.212-54.426,6.9,6.9,0,0,1,10.694.217l.209.266a6.98,6.98,0,0,1-.2,8.785A32.808,32.808,0,0,0,179.444,280.054Z" fill="#ffe000"/>
    </g>
  </g>
</svg>
