<svg id="Group_1187" data-name="Group 1187" xmlns="http://www.w3.org/2000/svg" width="32.268" height="32.315" viewBox="0 0 32.268 32.315">
  <path id="Path_2670" data-name="Path 2670" d="M-232.14,75.555a3.178,3.178,0,0,0-2.305-1.057,3.287,3.287,0,0,0-2.333,1.05l-2.155,2.148c-.177-.1-.355-.184-.525-.273-.246-.123-.477-.239-.675-.361a23.424,23.424,0,0,1-5.613-5.115,13.82,13.82,0,0,1-1.841-2.905c.559-.512,1.078-1.044,1.582-1.555.191-.191.382-.389.573-.58a3.129,3.129,0,0,0,0-4.72l-1.862-1.862c-.211-.211-.43-.43-.634-.648-.409-.423-.839-.859-1.282-1.269a3.228,3.228,0,0,0-2.285-1,3.341,3.341,0,0,0-2.319,1l-.014.014-2.319,2.339a4.99,4.99,0,0,0-1.48,3.171,11.957,11.957,0,0,0,.873,5.061,29.366,29.366,0,0,0,5.218,8.7,32.1,32.1,0,0,0,10.688,8.369,16.652,16.652,0,0,0,6,1.773c.143.007.293.014.43.014a5.139,5.139,0,0,0,3.935-1.691c.007-.014.02-.02.027-.034a15.506,15.506,0,0,1,1.194-1.234c.293-.28.593-.573.887-.88a3.4,3.4,0,0,0,1.03-2.36,3.278,3.278,0,0,0-1.05-2.339Zm2.442,7.182c-.007,0-.007.007,0,0-.266.286-.539.546-.832.832a17.939,17.939,0,0,0-1.316,1.364,3.288,3.288,0,0,1-2.564,1.084c-.1,0-.211,0-.314-.007a14.793,14.793,0,0,1-5.32-1.6,30.3,30.3,0,0,1-10.067-7.884,27.689,27.689,0,0,1-4.911-8.178,9.738,9.738,0,0,1-.764-4.27,3.131,3.131,0,0,1,.941-2.026l2.326-2.326a1.55,1.55,0,0,1,1.037-.484,1.459,1.459,0,0,1,1,.477l.02.02c.416.389.812.791,1.228,1.221.211.218.43.437.648.662l1.862,1.862a1.3,1.3,0,0,1,0,2.114c-.2.2-.389.4-.587.587-.573.587-1.119,1.132-1.712,1.664-.014.014-.027.02-.034.034a1.391,1.391,0,0,0-.355,1.548l.02.061a14.949,14.949,0,0,0,2.2,3.594l.007.007a25.033,25.033,0,0,0,6.056,5.511,9.314,9.314,0,0,0,.839.457c.246.123.477.239.675.361.027.014.055.034.082.048a1.479,1.479,0,0,0,.675.171,1.458,1.458,0,0,0,1.037-.471l2.333-2.333a1.543,1.543,0,0,1,1.03-.512,1.389,1.389,0,0,1,.982.5l.014.014L-229.7,80.6A1.349,1.349,0,0,1-229.7,82.737Z" transform="translate(257.655 -55.537)" fill="#1559a6"/>
  <path id="Path_2671" data-name="Path 2671" d="M-12.3,117.752a8.649,8.649,0,0,1,4.706,2.442A8.694,8.694,0,0,1-5.151,124.9a.915.915,0,0,0,.907.764,1.218,1.218,0,0,0,.157-.014.922.922,0,0,0,.757-1.064,10.52,10.52,0,0,0-2.953-5.7,10.52,10.52,0,0,0-5.7-2.953.926.926,0,0,0-1.064.75A.911.911,0,0,0-12.3,117.752Z" transform="translate(29.739 -110.065)" fill="#1559a6"/>
  <path id="Path_2672" data-name="Path 2672" d="M6.086,44.255a17.306,17.306,0,0,0-4.863-9.378,17.306,17.306,0,0,0-9.378-4.863.917.917,0,0,0-1.057.75.925.925,0,0,0,.757,1.064A15.5,15.5,0,0,1-.073,36.173a15.451,15.451,0,0,1,4.345,8.382.915.915,0,0,0,.907.764,1.218,1.218,0,0,0,.157-.014A.9.9,0,0,0,6.086,44.255Z" transform="translate(26.169 -30)" fill="#1559a6"/>
</svg>
