<svg xmlns="http://www.w3.org/2000/svg" width="33" height="33" viewBox="0 0 33 33">
  <g id="Group_1473" data-name="Group 1473" transform="translate(-421 -1450)">
    <path id="Path_2887" data-name="Path 2887" d="M16.5,0C29.306,0,33,3.694,33,16.5S29.306,33,16.5,33,0,29.306,0,16.5,3.694,0,16.5,0Z" transform="translate(421 1450)" fill="rgba(21,89,166,0.05)"/>
    <g id="vuesax_bulk_clipboard-close" data-name="vuesax/bulk/clipboard-close" transform="translate(190 1203)">
      <g id="clipboard-close">
        <path id="Vector" d="M12.95,0H4.47A4.475,4.475,0,0,0,0,4.47v9.41a4.481,4.481,0,0,0,4.47,4.47h8.47a4.475,4.475,0,0,0,4.47-4.47V4.47A4.46,4.46,0,0,0,12.95,0Z" transform="translate(239.29 255.65)" fill="#1559a6" opacity="0.2"/>
        <path id="Vector-2" data-name="Vector" d="M6.59,0H1.89A1.886,1.886,0,0,0,0,1.88v.94A1.878,1.878,0,0,0,1.88,4.7H6.59A1.878,1.878,0,0,0,8.47,2.82V1.88A1.871,1.871,0,0,0,6.59,0Z" transform="translate(243.76 254)" fill="#1559a6"/>
        <path id="Vector-3" data-name="Vector" d="M5.277,4.178l-1.45-1.45,1.4-1.4A.75.75,0,0,0,4.168.268l-1.4,1.4L1.317.218a.75.75,0,0,0-1.06,1.06l1.45,1.45L.218,4.218a.754.754,0,0,0,0,1.06.748.748,0,0,0,1.06,0l1.49-1.49,1.45,1.45a.748.748,0,0,0,1.06,0A.754.754,0,0,0,5.277,4.178Z" transform="translate(245.253 263.443)" fill="#1559a6"/>
        <path id="Vector-4" data-name="Vector" d="M0,0H24V24H0Z" transform="translate(236 252)" fill="none" opacity="0"/>
      </g>
    </g>
  </g>
</svg>
