<svg id="vuesax_linear_star" data-name="vuesax/linear/star" xmlns="http://www.w3.org/2000/svg" width="14.967" height="14.967" viewBox="0 0 14.967 14.967">
  <g id="star" transform="translate(0 0)">
    <path id="Vector" d="M7.314.893l1.1,2.2a1.355,1.355,0,0,0,.886.655l1.989.331c1.272.212,1.572,1.135.655,2.045L10.4,7.666a1.354,1.354,0,0,0-.324,1.129l.443,1.915c.349,1.515-.455,2.1-1.8,1.31l-1.865-1.1a1.348,1.348,0,0,0-1.235,0l-1.865,1.1c-1.335.792-2.145.2-1.8-1.31L2.4,8.795a1.354,1.354,0,0,0-.324-1.129L.529,6.119c-.91-.91-.617-1.833.655-2.045l1.989-.331a1.358,1.358,0,0,0,.879-.655l1.1-2.2C5.749-.3,6.722-.3,7.314.893Z" transform="translate(1.248 1.296)" fill="#fff"/>
    <path id="Vector-2" data-name="Vector" d="M0,0H14.967V14.967H0Z" fill="#fff" opacity="0"/>
  </g>
</svg>
