<svg xmlns="http://www.w3.org/2000/svg" width="55.968" height="40.001" viewBox="0 0 55.968 40.001">
  <g id="Icon" transform="translate(-437.07 -6360.07)" opacity="0.3">
    <g id="Icon-2" data-name="Icon" transform="translate(437 6360)">
      <path id="Shape_1" data-name="Shape 1" d="M44,39.842c-.494-.453-.831-.8-1.57-1.563-.562-.578-1.363-1.405-2.657-2.715a.893.893,0,0,1-.1-1.128c3.175-4.668,3.261-8.021,3.148-9.252A12.572,12.572,0,0,1,43.541.071c6.668,0,11.888,5.258,12.411,12.5h0a34.142,34.142,0,0,1-10.788,27.28A.866.866,0,0,1,44,39.842Zm-11.125-27.2a10.742,10.742,0,0,0,10.664,10.8.907.907,0,0,1,.787.488c.318.614,1.044,4.894-2.808,10.905,1.009,1.024,1.674,1.71,2.161,2.212.4.417.678.7.918.938A32.559,32.559,0,0,0,54.208,12.7h0c-.454-6.293-4.941-10.86-10.667-10.86A10.742,10.742,0,0,0,32.878,12.637Zm-19.935,27.2c-.491-.451-.827-.8-1.562-1.555-.562-.579-1.365-1.408-2.664-2.723a.893.893,0,0,1-.1-1.128c3.174-4.666,3.259-8.02,3.146-9.252A12.572,12.572,0,0,1,12.482.071c6.67,0,11.889,5.258,12.41,12.5A34.139,34.139,0,0,1,14.1,39.854a.866.866,0,0,1-1.161-.013ZM1.819,12.637a10.742,10.742,0,0,0,10.663,10.8.9.9,0,0,1,.786.488c.319.614,1.046,4.895-2.806,10.905,1.013,1.029,1.681,1.717,2.168,2.22.4.413.672.693.91.93A32.552,32.552,0,0,0,23.148,12.7C22.694,6.409,18.209,1.842,12.482,1.842A10.742,10.742,0,0,0,1.819,12.637Z" fill="#1559a6"/>
    </g>
    <path id="Color_Overlay" data-name="Color Overlay" d="M481,6399.841c-.495-.453-.832-.8-1.571-1.563-.561-.578-1.362-1.405-2.657-2.714a.9.9,0,0,1-.1-1.129c3.175-4.668,3.261-8.02,3.148-9.252a12.572,12.572,0,0,1,.72-25.113c6.667,0,11.888,5.258,12.41,12.5a34.141,34.141,0,0,1-10.787,27.28.864.864,0,0,1-1.161-.011Zm-11.125-27.2a10.742,10.742,0,0,0,10.664,10.8.905.905,0,0,1,.785.488c.318.613,1.046,4.894-2.808,10.9,1.009,1.025,1.674,1.71,2.16,2.212.4.417.678.7.919.938a32.56,32.56,0,0,0,9.61-25.274c-.455-6.293-4.941-10.859-10.667-10.859A10.742,10.742,0,0,0,469.878,6372.637Zm-19.935,27.2c-.492-.451-.827-.8-1.563-1.555-.562-.58-1.365-1.409-2.663-2.723a.894.894,0,0,1-.1-1.129c3.175-4.666,3.259-8.02,3.147-9.252a12.572,12.572,0,0,1,.72-25.113c6.671,0,11.889,5.258,12.411,12.5a34.142,34.142,0,0,1-10.787,27.281.866.866,0,0,1-1.161-.013Zm-11.125-27.2a10.742,10.742,0,0,0,10.662,10.8.908.908,0,0,1,.787.488c.318.613,1.046,4.894-2.808,10.9,1.014,1.03,1.682,1.717,2.168,2.22.4.413.671.692.911.93a32.551,32.551,0,0,0,9.608-25.274c-.453-6.293-4.939-10.859-10.667-10.859A10.742,10.742,0,0,0,438.819,6372.637Z" fill="#1559a6"/>
  </g>
</svg>
