<svg id="Group_1197" data-name="Group 1197" xmlns="http://www.w3.org/2000/svg" width="29.733" height="29.733" viewBox="0 0 29.733 29.733">
  <circle id="Oval" cx="14.867" cy="14.867" r="14.867" transform="translate(0 0)" fill="#1559a6"/>
  <path id="Shape" d="M17.321,1.666a7.09,7.09,0,0,1-2.041.559A3.563,3.563,0,0,0,16.842.26a7.114,7.114,0,0,1-2.257.862A3.557,3.557,0,0,0,8.53,4.363,10.087,10.087,0,0,1,1.206.65a3.557,3.557,0,0,0,1.1,4.745A3.528,3.528,0,0,1,.7,4.95c0,.015,0,.03,0,.045A3.556,3.556,0,0,0,3.546,8.479a3.567,3.567,0,0,1-1.6.061,3.557,3.557,0,0,0,3.32,2.468A7.13,7.13,0,0,1,.847,12.529,7.156,7.156,0,0,1,0,12.479a10.052,10.052,0,0,0,5.447,1.6A10.042,10.042,0,0,0,15.558,3.965c0-.154,0-.307-.01-.46a7.206,7.206,0,0,0,1.773-1.839Z" transform="translate(7.487 8.984)" fill="#fff"/>
</svg>
