<svg xmlns="http://www.w3.org/2000/svg" width="33" height="33" viewBox="0 0 33 33">
  <g id="Group_1473" data-name="Group 1473" transform="translate(-421 -1450)">
    <path id="Path_2887" data-name="Path 2887" d="M16.5,0C29.306,0,33,3.694,33,16.5S29.306,33,16.5,33,0,29.306,0,16.5,3.694,0,16.5,0Z" transform="translate(421 1450)" fill="rgba(21,89,166,0.05)"/>
    <g id="Group" transform="translate(185.333 1007.526)">
      <path id="Vector" d="M1.145,10.836a1.121,1.121,0,0,0,.8-.332L8.565,3.884V7.556a1.133,1.133,0,0,0,2.267,0V1.149A1.138,1.138,0,0,0,10.741.71a1.183,1.183,0,0,0-.62-.62A1.084,1.084,0,0,0,9.683,0H3.276A1.142,1.142,0,0,0,2.142,1.133,1.142,1.142,0,0,0,3.276,2.267H6.948L.329,8.886a1.149,1.149,0,0,0,.816,1.95Z" transform="translate(246.034 450.92)" fill="#1559a6"/>
      <path id="Vector-2" data-name="Vector" d="M20.354.768a1.132,1.132,0,0,0-1.436-.71,27.706,27.706,0,0,1-17.425,0A1.133,1.133,0,0,0,.768,2.2,29.839,29.839,0,0,0,10.2,3.73,29.838,29.838,0,0,0,19.629,2.2,1.14,1.14,0,0,0,20.354.768Z" transform="translate(241.242 464.297)" fill="rgba(21,89,166,0.5)"/>
    </g>
  </g>
</svg>
